<?xml version="1.0" standalone="no"?>
<!DOCTYPE svg PUBLIC "-//W3C//DTD SVG 20010904//EN"
 "http://www.w3.org/TR/2001/REC-SVG-20010904/DTD/svg10.dtd">
<svg version="1.0" xmlns="http://www.w3.org/2000/svg"
 width="2000.000000pt" height="2000.000000pt" viewBox="0 0 2000.000000 2000.000000"
 preserveAspectRatio="xMidYMid meet">

<g transform="translate(0.000000,2000.000000) scale(0.100000,-0.100000)"
fill="#000000" stroke="none">
<path d="M4495 16320 c-90 -18 -172 -69 -210 -130 -36 -58 -31 -57 28 3 61 62
121 94 203 107 82 14 7394 13 7452 0 89 -21 169 -76 227 -155 13 -19 14 -19 8
5 -9 35 -89 112 -146 139 -26 13 -78 27 -115 32 -85 10 -7393 10 -7447 -1z"/>
<path d="M12254 14415 c0 -71 1 -99 3 -62 2 37 2 96 0 130 -2 34 -3 4 -3 -68z"/>
<path d="M8508 14393 c7 -3 16 -2 19 1 4 3 -2 6 -13 5 -11 0 -14 -3 -6 -6z"/>
<path d="M12254 14095 c0 -82 2 -115 3 -72 2 43 2 110 0 150 -1 40 -3 5 -3
-78z"/>
<path d="M4208 13820 c-12 -495 -9 -3937 2 -3988 15 -64 46 -123 88 -169 41
-45 118 -93 148 -93 11 1 -4 12 -32 26 -62 29 -137 107 -167 172 l-22 47 -5
2165 c-3 1387 -8 2048 -12 1840z"/>
<path d="M12865 13814 c-191 -34 -356 -95 -498 -184 -52 -33 -98 -60 -101 -60
-3 0 -7 44 -9 98 l-3 97 -2 -105 -2 -104 -83 -81 c-46 -44 -102 -106 -126
-137 -42 -57 -45 -58 -92 -58 -344 0 -550 -326 -624 -985 -25 -225 -45 -662
-34 -741 24 -168 103 -403 241 -714 82 -184 78 -189 78 97 0 367 34 1053 61
1223 58 371 246 737 481 936 68 58 87 64 193 64 156 0 387 -109 597 -282 225
-185 419 -396 565 -613 l40 -60 -126 0 c-120 0 -129 -1 -185 -30 -66 -33 -88
-57 -69 -76 7 -7 71 -15 155 -20 78 -5 186 -16 238 -24 90 -15 96 -17 125 -53
58 -72 171 -185 251 -251 45 -36 113 -92 151 -124 l70 -58 12 -122 c22 -214
59 -440 80 -498 62 -165 188 -221 336 -151 135 64 205 201 205 404 l0 87 35 7
c67 12 207 -1 251 -23 40 -22 102 -82 124 -123 22 -42 40 -116 46 -196 12
-146 -25 -279 -101 -362 -51 -57 -66 -59 -108 -17 -27 27 -43 35 -68 34 l-34
-1 30 -9 c65 -18 97 -75 75 -130 -27 -65 -101 -80 -151 -30 -38 39 -39 87 -3
130 14 17 21 31 16 31 -22 0 -62 -62 -62 -95 0 -33 0 -33 -42 -28 -24 2 -51 6
-60 8 -13 2 -18 -3 -18 -18 0 -12 -13 -175 -30 -362 -16 -187 -28 -341 -26
-342 3 -3 150 195 167 226 8 14 21 33 29 43 9 9 31 46 49 80 57 106 80 137
113 154 41 21 143 101 184 146 54 56 75 104 134 298 20 65 39 148 59 250 6 30
15 78 20 105 39 202 66 428 77 625 10 194 -26 395 -112 627 -84 229 -261 542
-398 705 -124 148 -344 298 -721 493 -324 167 -592 259 -866 299 -135 20 -423
20 -534 0z"/>
<path d="M9430 12679 c0 -55 -2 -60 -17 -53 -41 18 -108 15 -141 -6 -79 -49
-81 -185 -4 -236 32 -22 122 -24 146 -5 11 9 16 10 16 2 0 -6 17 -11 40 -11
l40 0 0 185 0 185 -40 0 -40 0 0 -61z m-23 -121 c18 -14 25 -61 14 -91 -19
-49 -103 -49 -122 1 -28 74 48 138 108 90z"/>
<path d="M7030 12545 l0 -175 40 0 40 0 0 44 0 43 71 6 c104 9 152 49 152 128
0 93 -57 129 -206 129 l-97 0 0 -175z m202 88 c25 -23 23 -68 -4 -87 -13 -9
-43 -16 -70 -16 l-48 0 0 60 0 60 52 0 c34 0 58 -6 70 -17z"/>
<path d="M7413 12625 c-36 -16 -39 -23 -20 -49 12 -16 18 -17 55 -5 32 9 48 9
67 1 45 -21 30 -39 -37 -46 -73 -9 -108 -34 -108 -78 0 -42 15 -64 51 -77 43
-15 68 -14 102 3 15 8 27 11 27 5 0 -5 16 -9 35 -9 l35 0 0 101 c0 55 -5 109
-10 120 -25 46 -129 64 -197 34z m134 -161 c11 -33 -88 -64 -100 -31 -10 29
13 48 55 45 23 -2 43 -8 45 -14z"/>
<path d="M7740 12633 c-37 -14 -60 -47 -60 -84 0 -46 24 -66 91 -75 64 -9 80
-20 55 -39 -24 -18 -49 -18 -98 -1 -36 13 -37 13 -47 -15 -9 -25 -7 -30 12
-41 12 -6 52 -12 89 -12 87 -1 122 21 126 82 4 48 -17 67 -85 78 -49 8 -79 26
-69 42 9 15 81 16 107 2 16 -9 21 -6 31 15 9 19 9 28 0 37 -13 13 -127 21
-152 11z"/>
<path d="M7991 12627 c-27 -16 -50 -53 -51 -80 0 -33 44 -66 99 -73 60 -8 83
-27 52 -43 -25 -14 -47 -13 -93 3 -35 13 -37 12 -48 -13 -15 -32 3 -47 69 -56
94 -13 161 24 161 87 0 41 -29 63 -99 77 -49 10 -62 16 -59 29 4 21 57 28 98
14 24 -9 29 -7 39 15 8 17 9 29 2 36 -16 16 -143 19 -170 4z"/>
<path d="M8192 12628 c3 -7 24 -68 48 -135 l44 -123 41 0 c40 0 41 1 59 53 37
103 36 103 46 87 6 -8 19 -43 31 -78 l21 -63 41 3 42 3 47 130 c26 72 48 131
48 133 0 2 -16 2 -37 0 -35 -3 -37 -5 -59 -68 -42 -124 -39 -120 -54 -75 -43
134 -49 145 -84 145 -33 0 -34 -1 -66 -92 l-33 -91 -31 89 -32 89 -38 3 c-29
3 -37 0 -34 -10z"/>
<path d="M8743 12625 c-65 -28 -92 -118 -57 -191 32 -68 149 -94 218 -48 59
38 80 132 42 188 -39 61 -129 83 -203 51z m95 -51 c29 -8 55 -58 46 -87 -11
-36 -35 -57 -66 -57 -63 0 -91 78 -43 125 26 27 29 28 63 19z"/>
<path d="M9020 12505 l0 -135 40 0 40 0 0 80 c0 89 17 120 65 120 22 0 25 4
25 35 0 30 -3 35 -23 35 -13 0 -32 -7 -43 -15 -25 -19 -34 -19 -34 0 0 10 -11
15 -35 15 l-35 0 0 -135z"/>
<path d="M12021 12168 c-80 -14 -166 -68 -171 -108 -6 -40 -7 -40 213 -34 116
3 222 7 235 10 47 10 10 70 -68 109 -42 22 -149 33 -209 23z"/>
<path d="M5688 11754 c-51 -16 -106 -63 -135 -117 -16 -29 -18 -75 -21 -517
-3 -537 -3 -534 62 -608 60 -69 76 -72 401 -72 177 0 305 4 329 11 51 14 128
91 144 145 18 62 16 965 -2 1017 -21 57 -61 103 -113 128 -47 23 -56 24 -333
26 -229 2 -294 -1 -332 -13z m625 -15 c49 -13 105 -63 128 -114 17 -37 19 -77
19 -516 0 -330 -3 -486 -11 -510 -18 -54 -55 -95 -106 -120 -47 -24 -54 -24
-338 -24 -284 0 -291 0 -338 24 -51 25 -88 66 -106 120 -7 23 -11 180 -11 508
0 516 0 515 58 577 59 62 78 66 387 66 165 0 295 -4 318 -11z"/>
<path d="M6841 11760 c-58 -14 -114 -61 -143 -119 l-28 -55 0 -475 c0 -307 4
-490 11 -515 16 -58 81 -123 142 -141 73 -22 598 -22 650 0 50 21 94 61 120
109 22 40 22 49 25 496 2 250 0 479 -3 507 -9 72 -56 140 -121 173 -48 25 -50
25 -334 27 -157 1 -300 -2 -319 -7z m612 -21 c49 -13 100 -59 126 -113 20 -41
21 -57 21 -522 l0 -480 -25 -51 c-32 -63 -83 -100 -160 -114 -36 -6 -158 -9
-314 -7 l-256 3 -48 28 c-26 15 -60 47 -75 69 l-27 42 -3 498 c-2 476 -2 499
17 535 10 21 32 50 48 65 57 55 74 57 378 58 166 0 295 -4 318 -11z"/>
<path d="M7955 11761 c-72 -18 -133 -70 -162 -138 -10 -26 -13 -133 -13 -520
0 -544 -1 -531 71 -600 64 -61 78 -63 401 -63 289 0 294 1 345 24 64 30 108
87 123 161 7 36 10 203 8 512 -3 448 -3 459 -25 498 -30 57 -80 101 -136 119
-39 13 -95 16 -315 15 -147 -1 -280 -4 -297 -8z m630 -35 c59 -27 77 -46 104
-106 20 -43 21 -64 21 -510 0 -298 -4 -479 -11 -503 -13 -47 -67 -109 -117
-133 -33 -17 -65 -19 -332 -19 -269 0 -298 2 -330 19 -49 26 -79 55 -103 101
-21 39 -22 51 -25 495 -4 514 -2 538 56 603 68 74 79 77 402 77 278 0 286 -1
335 -24z"/>
<path d="M9075 11761 c-72 -18 -133 -70 -162 -138 -10 -26 -13 -133 -13 -520
0 -453 2 -491 19 -529 24 -52 63 -91 115 -115 37 -17 70 -19 336 -19 291 0
296 1 347 24 64 30 108 87 123 161 7 35 10 205 8 511 -3 512 0 487 -76 567
-59 61 -95 67 -401 66 -146 -1 -279 -4 -296 -8z m657 -46 c28 -20 53 -49 71
-84 l27 -55 0 -465 c0 -294 -4 -480 -11 -504 -13 -47 -60 -102 -113 -130 -40
-21 -52 -22 -336 -22 -269 0 -298 2 -330 19 -49 26 -79 55 -103 101 -21 39
-22 51 -25 494 -3 514 -1 540 56 604 69 76 77 77 419 75 l301 -3 44 -30z"/>
<path d="M10148 11758 c-21 -5 -57 -27 -82 -49 -79 -69 -77 -56 -74 -626 l3
-501 30 -43 c19 -27 50 -54 84 -71 l53 -28 292 0 c285 0 292 1 342 24 57 27
110 84 124 136 6 20 10 234 10 513 0 521 0 519 -58 580 -15 16 -45 39 -67 50
-38 21 -54 22 -330 24 -171 1 -305 -3 -327 -9z m637 -27 c22 -10 55 -32 72
-50 60 -60 63 -85 63 -578 0 -287 -4 -459 -11 -487 -14 -55 -59 -110 -112
-139 -41 -21 -52 -22 -322 -22 -154 0 -296 3 -316 8 -20 4 -57 25 -82 47 -77
68 -77 67 -77 589 0 275 4 470 10 492 17 61 52 102 109 132 l55 27 285 0 c255
0 290 -2 326 -19z"/>
<path d="M12013 11739 c-71 -7 -163 -48 -193 -86 -40 -51 -26 -53 105 -14 96
29 180 27 288 -5 48 -15 90 -24 94 -20 12 12 -32 59 -82 87 -61 34 -130 46
-212 38z"/>
<path d="M13308 11739 c-67 -10 -124 -36 -167 -79 -56 -57 -43 -61 72 -25 54
17 100 25 152 25 52 0 98 -8 152 -25 90 -29 103 -30 103 -11 0 23 -65 73 -122
94 -68 25 -118 30 -190 21z"/>
<path d="M12693 11575 c-58 -124 -175 -415 -284 -705 -121 -322 -108 -348 171
-349 133 0 116 13 -51 38 -132 19 -154 32 -142 79 3 13 32 92 65 176 158 400
301 812 296 849 -2 14 -20 -14 -55 -88z"/>
<path d="M12003 11336 c-42 -35 -58 -85 -43 -130 44 -134 250 -110 250 29 0
37 -6 52 -33 82 -29 31 -41 37 -88 41 -48 4 -59 1 -86 -22z"/>
<path d="M13219 11345 c-39 -21 -59 -59 -59 -109 0 -111 151 -162 224 -75 28
33 34 86 16 133 -21 56 -120 84 -181 51z"/>
<path d="M13127 10493 c-3 -4 -12 -37 -21 -72 -40 -155 -137 -253 -290 -292
-26 -6 -45 -16 -43 -22 6 -18 59 -28 112 -21 117 14 219 105 256 225 15 48 20
86 17 120 -5 48 -20 80 -31 62z"/>
<path d="M5085 9549 c174 -9 1062 -9 1100 1 17 4 -253 7 -600 7 -375 0 -577
-3 -500 -8z"/>
<path d="M8783 9548 c-20 -26 -560 -826 -578 -857 -5 -9 -4 -12 3 -7 12 7 106
144 402 584 l183 272 341 1 c188 0 350 4 361 9 12 5 -130 9 -341 9 -278 1
-364 -2 -371 -11z"/>
<path d="M8131 8765 c11 -22 30 -49 41 -60 l21 -20 -19 33 c-10 18 -29 45 -42
60 l-23 27 22 -40z"/>
<path d="M16175 8302 c4 -8 -1 -22 -12 -35 -24 -28 -91 -141 -132 -227 -100
-203 -167 -414 -206 -639 -20 -114 -33 -344 -25 -426 5 -53 6 -44 13 70 27
440 118 763 320 1139 47 85 56 110 47 120 -10 8 -11 8 -5 -2z"/>
<path d="M1874 8039 c-23 -26 -24 -102 -1 -169 22 -65 75 -196 104 -260 60
-130 122 -273 186 -430 16 -41 38 -93 47 -115 10 -22 34 -85 55 -140 20 -55
61 -161 90 -235 63 -162 168 -439 225 -595 10 -27 26 -70 35 -95 10 -25 21
-56 25 -70 5 -14 22 -63 40 -110 17 -47 44 -123 60 -170 15 -47 35 -103 43
-125 8 -22 18 -49 23 -60 4 -11 8 -24 9 -30 2 -5 19 -59 38 -120 66 -204 97
-309 168 -570 59 -217 58 -215 98 -350 32 -110 55 -214 48 -221 -6 -7 -127
117 -127 131 0 6 -17 32 -38 56 -48 55 -192 234 -297 369 -44 57 -87 111 -95
120 -9 8 -41 51 -73 95 -31 44 -91 127 -132 184 -204 281 -539 886 -809 1461
-109 232 -118 249 -138 266 -16 16 -21 16 -29 4 -16 -25 5 -219 32 -288 5 -13
9 -36 9 -52 0 -16 4 -39 9 -52 5 -13 14 -48 21 -78 7 -30 21 -82 32 -115 10
-33 23 -76 28 -95 47 -176 188 -588 242 -710 11 -25 26 -58 33 -75 79 -185
199 -419 354 -690 120 -209 380 -602 525 -794 55 -74 110 -146 120 -160 11
-14 40 -51 65 -81 25 -30 46 -57 46 -60 0 -3 5 -13 11 -23 9 -16 41 -17 493
-15 l483 3 15 45 c18 58 70 193 94 247 11 24 19 52 19 62 0 11 5 23 10 26 6 3
10 16 10 29 0 12 4 26 10 32 15 15 115 313 145 434 9 36 23 85 32 110 8 25 19
66 24 93 5 26 14 71 20 100 25 123 30 147 41 242 21 172 13 377 -22 563 -6 28
-14 73 -19 100 -4 26 -18 90 -31 142 -30 128 -33 142 -68 317 -30 148 -74 297
-113 377 -11 22 -19 43 -19 48 0 9 -23 61 -81 184 -64 135 -129 174 -198 116
l-33 -28 0 -144 c1 -164 23 -371 62 -585 6 -33 15 -86 20 -117 6 -32 15 -86
20 -120 6 -35 15 -91 20 -125 6 -35 15 -93 21 -130 21 -133 30 -251 36 -458 6
-229 0 -299 -48 -560 -42 -232 -50 -266 -67 -305 l-16 -35 -7 45 c-3 25 -9 92
-13 150 -4 58 -8 123 -11 145 -2 22 -7 94 -10 160 -4 66 -9 136 -11 155 -3 19
-9 82 -13 140 -14 168 -41 420 -51 488 -23 147 -32 199 -40 232 -5 19 -14 62
-20 95 -7 33 -16 68 -21 77 -5 10 -9 27 -9 37 0 11 -4 30 -9 43 -5 13 -15 43
-22 68 -19 70 -79 252 -94 285 -7 17 -23 57 -36 90 -13 33 -44 103 -70 156
-55 111 -79 130 -128 100 -22 -14 -23 -20 -18 -75 3 -34 13 -106 21 -161 36
-242 61 -436 97 -765 6 -52 19 -142 29 -200 11 -65 15 -111 9 -121 -4 -9 -5
-19 -2 -23 3 -3 3 -6 -1 -6 -4 0 -18 24 -32 54 -13 30 -31 60 -39 66 -8 7 -15
21 -15 31 0 10 -4 21 -10 24 -5 3 -10 19 -10 34 0 16 -9 53 -21 82 -31 79 -35
90 -49 134 -7 22 -21 58 -30 80 -10 22 -32 78 -50 125 -34 87 -103 233 -157
330 -17 30 -51 92 -75 136 -25 45 -149 290 -277 545 -300 601 -330 657 -449
839 -42 63 -101 141 -132 172 -52 54 -59 58 -101 58 -34 0 -51 -6 -65 -21z"/>
<path d="M5560 7473 c-36 -81 -128 -351 -195 -568 -74 -245 -82 -273 -120
-425 -35 -143 -58 -226 -75 -265 -4 -11 -36 -92 -71 -180 -136 -349 -443
-1053 -714 -1641 -19 -40 -48 -105 -65 -145 -18 -41 -57 -125 -86 -188 -30
-62 -54 -115 -54 -118 0 -2 -36 -82 -80 -178 -44 -96 -80 -179 -80 -184 0 -7
37 -11 100 -11 l100 0 0 -1082 c0 -596 0 -1093 0 -1105 l0 -23 274 0 c240 0
275 2 280 16 3 9 6 503 6 1099 l0 1084 -43 6 c-23 4 -92 4 -152 2 -176 -8
-186 -2 -143 91 11 26 25 61 29 77 4 17 37 116 74 220 37 105 78 226 92 270
14 44 30 91 36 105 5 14 13 34 18 45 4 11 13 38 20 60 11 37 17 55 40 110 4
11 22 63 39 115 17 52 35 104 40 115 5 11 18 49 30 85 11 36 25 73 30 82 6 10
10 26 10 36 0 10 4 22 8 28 5 5 21 47 36 94 15 47 34 99 41 115 8 17 25 64 39
105 13 41 45 131 70 200 24 69 62 175 84 235 22 61 49 137 61 170 12 33 29 80
37 105 8 25 20 56 26 70 13 31 23 56 36 95 43 123 128 346 154 400 5 12 10 27
12 35 2 8 6 22 9 30 7 17 34 108 48 160 10 36 23 100 40 205 17 100 22 392 8
442 -6 24 -15 46 -20 48 -4 3 -17 -16 -29 -42z"/>
<path d="M11212 6555 c-7 -16 -17 -39 -22 -50 -99 -209 -162 -512 -164 -798
l-1 -169 -230 6 c-126 3 -682 8 -1235 11 -553 3 -1086 8 -1185 10 -99 2 -526
6 -950 9 l-770 4 960 -13 c528 -7 1586 -21 2350 -30 867 -10 1402 -20 1422
-26 26 -8 93 -68 93 -83 0 -3 193 -959 345 -1706 29 -146 85 -420 124 -610 38
-190 102 -505 142 -700 39 -195 91 -447 113 -560 l41 -205 746 -5 c697 -5 747
-6 772 -23 16 -10 31 -25 34 -33 5 -14 33 -20 33 -6 -1 13 -35 49 -60 63 -21
12 -157 15 -765 19 l-740 5 -22 105 c-12 58 -29 141 -37 185 -9 44 -34 168
-56 275 -23 107 -47 227 -54 265 -18 96 -224 1110 -401 1980 -53 259 -116 568
-140 687 -55 271 -60 291 -85 313 -12 10 -18 25 -15 32 2 8 1 12 -4 9 -5 -3
-25 1 -45 9 -22 9 -68 15 -120 15 -47 0 -87 4 -91 10 -8 13 -9 519 -1 615 4
44 14 144 22 222 9 78 14 154 12 170 l-4 28 -12 -30z"/>
<path d="M15840 6232 c0 -6 7 -40 15 -76 12 -52 13 -75 4 -118 -16 -71 -6
-472 15 -638 38 -297 62 -421 153 -803 l67 -279 36 6 c19 3 60 8 90 11 63 6
36 -5 -61 -25 l-56 -11 22 -82 c13 -45 37 -134 54 -197 18 -63 41 -127 52
-143 22 -30 21 -31 -46 -42 -66 -11 -216 -63 -282 -98 -153 -79 -244 -225
-242 -385 2 -116 15 -127 21 -17 4 60 13 119 24 148 26 67 102 157 173 205
106 70 348 147 432 136 33 -4 53 -2 70 9 41 26 287 1 413 -43 118 -40 272
-123 261 -140 -3 -6 1 -7 9 -4 11 4 48 -27 118 -97 118 -119 188 -228 239
-370 18 -49 34 -87 36 -85 9 9 -28 129 -62 204 -19 42 -28 68 -19 57 9 -11 34
-58 55 -105 72 -155 83 -169 137 -170 26 0 36 6 53 33 18 28 20 43 16 117 -3
48 -14 110 -25 142 -26 71 -105 189 -169 248 -54 51 -136 110 -152 110 -6 0
-11 4 -11 8 0 5 -19 17 -42 26 -237 97 -454 130 -684 104 -134 -16 -155 -13
-144 16 6 19 7 18 13 -3 l6 -23 43 31 c80 58 176 120 230 147 104 53 259 97
382 110 36 4 66 11 66 17 0 12 -126 2 -223 -19 -38 -8 -74 -11 -79 -8 -6 4 -8
3 -5 -3 4 -6 -12 -16 -36 -23 -63 -19 -195 -87 -255 -132 -29 -21 -57 -36 -64
-32 -7 5 -8 3 -3 -5 7 -12 -30 -61 -45 -61 -10 0 -31 110 -24 121 3 5 0 9 -5
9 -6 0 -11 7 -11 15 0 30 -401 1649 -501 2025 -46 171 -59 211 -59 182z m53
-247 c4 -25 4 -33 -2 -20 -4 11 -11 38 -14 60 -4 25 -4 33 2 20 4 -11 11 -38
14 -60z m24 -107 c-3 -8 -6 -5 -6 6 -1 11 2 17 5 13 3 -3 4 -12 1 -19z"/>
<path d="M5858 5583 c7 -3 16 -2 19 1 4 3 -2 6 -13 5 -11 0 -14 -3 -6 -6z"/>
<path d="M6033 5583 c75 -2 199 -2 275 0 75 1 13 3 -138 3 -151 0 -213 -2
-137 -3z"/>
<path d="M5774 5538 l-29 -33 33 29 c30 28 37 36 29 36 -2 0 -16 -15 -33 -32z"/>
<path d="M6380 5360 c300 -4 1405 -15 2455 -24 2628 -22 2333 -17 2376 -43 19
-13 43 -37 53 -55 9 -18 167 -784 351 -1703 344 -1714 352 -1753 354 -1722 1
10 -3 37 -9 60 -5 23 -26 125 -45 227 -53 275 -125 640 -480 2435 -75 379
-143 702 -151 717 -8 16 -33 40 -56 56 l-41 27 -206 2 c-341 4 -3283 23 -4246
27 -775 4 -825 3 -355 -4z"/>
<path d="M5791 5104 c0 -11 3 -14 6 -6 3 7 2 16 -1 19 -3 4 -6 -2 -5 -13z"/>
<path d="M16488 5093 c7 -3 16 -2 19 1 4 3 -2 6 -13 5 -11 0 -14 -3 -6 -6z"/>
<path d="M5801 5054 c0 -11 3 -14 6 -6 3 7 2 16 -1 19 -3 4 -6 -2 -5 -13z"/>
<path d="M5811 5004 c0 -11 3 -14 6 -6 3 7 2 16 -1 19 -3 4 -6 -2 -5 -13z"/>
<path d="M13316 4961 c14 -75 118 -282 190 -377 20 -25 33 -52 30 -59 -3 -9 0
-12 9 -9 10 4 15 -8 20 -43 4 -26 17 -75 28 -108 20 -58 31 -82 84 -173 l25
-43 127 6 c69 4 131 8 137 10 6 2 16 0 23 -5 7 -4 -29 -10 -81 -14 -125 -9
-178 -17 -178 -26 0 -20 159 -166 234 -215 158 -103 276 -138 471 -138 145 0
223 15 340 66 105 45 173 91 245 168 36 37 81 75 100 83 48 21 32 20 -63 -5
-197 -50 -431 -63 -607 -35 -365 60 -643 221 -891 516 -81 96 -179 266 -243
420 -3 8 -3 0 0 -19z"/>
<path d="M5821 4954 c0 -11 3 -14 6 -6 3 7 2 16 -1 19 -3 4 -6 -2 -5 -13z"/>
<path d="M5831 4904 c0 -11 3 -14 6 -6 3 7 2 16 -1 19 -3 4 -6 -2 -5 -13z"/>
<path d="M5841 4854 c0 -11 3 -14 6 -6 3 7 2 16 -1 19 -3 4 -6 -2 -5 -13z"/>
<path d="M5852 4810 c0 -14 2 -19 5 -12 2 6 2 18 0 25 -3 6 -5 1 -5 -13z"/>
<path d="M5861 4764 c0 -11 3 -14 6 -6 3 7 2 16 -1 19 -3 4 -6 -2 -5 -13z"/>
<path d="M5871 4714 c0 -11 3 -14 6 -6 3 7 2 16 -1 19 -3 4 -6 -2 -5 -13z"/>
<path d="M5882 4665 c0 -11 4 -33 8 -50 7 -27 8 -27 8 -5 0 14 -4 36 -8 50 -6
20 -8 21 -8 5z"/>
<path d="M5901 4564 c0 -11 3 -14 6 -6 3 7 2 16 -1 19 -3 4 -6 -2 -5 -13z"/>
<path d="M5912 4520 c0 -14 2 -19 5 -12 2 6 2 18 0 25 -3 6 -5 1 -5 -13z"/>
<path d="M5922 4470 c0 -14 4 -36 8 -50 6 -20 8 -21 8 -5 0 11 -4 34 -8 50 -7
27 -8 27 -8 5z"/>
<path d="M5942 4370 c0 -14 2 -19 5 -12 2 6 2 18 0 25 -3 6 -5 1 -5 -13z"/>
<path d="M5952 4320 c0 -14 2 -19 5 -12 2 6 2 18 0 25 -3 6 -5 1 -5 -13z"/>
<path d="M5962 4270 c0 -14 2 -19 5 -12 2 6 2 18 0 25 -3 6 -5 1 -5 -13z"/>
<path d="M5972 4220 c0 -14 2 -19 5 -12 2 6 2 18 0 25 -3 6 -5 1 -5 -13z"/>
<path d="M5982 4175 c0 -11 4 -31 8 -45 6 -20 8 -21 8 -5 0 11 -4 31 -8 45 -6
20 -8 21 -8 5z"/>
<path d="M6001 4090 c-2 -23 32 -186 36 -174 2 5 -5 50 -16 99 -10 50 -19 83
-20 75z"/>
<path d="M6042 3880 c0 -14 4 -36 8 -50 l8 -25 0 25 c0 14 -4 36 -8 50 l-8 25
0 -25z"/>
<path d="M6061 3794 c-1 -12 20 -122 144 -729 53 -258 132 -648 175 -865 44
-217 100 -491 123 -607 30 -145 40 -216 33 -223 -7 -7 1445 -9 4564 -8 2516 2
4147 4 3624 5 l-951 3 32 35 c34 36 52 96 40 135 -12 38 -31 23 -27 -22 5 -52
-17 -97 -61 -124 -31 -19 -96 -19 -3614 -22 -2134 -1 -3583 2 -3583 7 0 5 -34
175 -75 377 -137 667 -253 1233 -335 1634 -78 383 -88 427 -89 404z"/>
<path d="M17220 3476 c0 -2 8 -10 18 -17 15 -13 16 -12 3 4 -13 16 -21 21 -21
13z"/>
<path d="M15778 3294 c-3 -3 17 -26 44 -52 182 -170 345 -470 423 -781 28
-110 55 -321 55 -429 0 -75 3 -101 11 -96 9 5 10 49 6 158 -9 216 -36 364
-101 555 -30 88 -122 286 -148 318 -5 7 -6 18 -2 24 4 7 3 9 -4 5 -6 -4 -16 4
-23 16 -37 71 -247 297 -261 282z"/>
<path d="M18160 2471 c0 -7 -3 -10 -7 -8 -5 3 -8 -5 -9 -16 0 -12 -4 -31 -7
-42 -4 -11 2 0 14 23 11 24 18 46 15 50 -3 3 -6 0 -6 -7z"/>
<path d="M18094 2328 c-73 -144 -233 -320 -337 -370 -154 -75 -428 -130 -857
-174 -373 -38 -637 15 -789 156 l-44 41 -261 -20 c-253 -20 -612 -48 -1406
-111 -212 -17 -424 -33 -473 -37 -48 -3 -85 -8 -82 -11 3 -3 351 -9 773 -13
820 -8 851 -9 1122 -64 69 -14 163 -34 210 -45 380 -90 347 -85 565 -83 303 4
742 29 795 47 63 20 138 55 145 67 4 5 1 33 -6 61 -14 62 -10 67 88 92 125 32
148 39 218 75 120 60 264 220 350 390 14 28 23 51 20 51 -2 0 -17 -24 -31 -52z"/>
<path d="M11972 1770 c0 -14 4 -36 8 -50 6 -20 8 -21 8 -5 0 11 -4 34 -8 50
-7 27 -8 27 -8 5z"/>
<path d="M11992 1670 c0 -14 2 -19 5 -12 2 6 2 18 0 25 -3 6 -5 1 -5 -13z"/>
<path d="M12002 1620 c0 -14 2 -19 5 -12 2 6 2 18 0 25 -3 6 -5 1 -5 -13z"/>
<path d="M16820 1580 c-207 -13 -247 -18 -180 -21 131 -5 285 1 394 17 55 8
102 16 104 19 6 6 16 6 -318 -15z"/>
<path d="M12012 1570 c0 -14 2 -19 5 -12 2 6 2 18 0 25 -3 6 -5 1 -5 -13z"/>
<path d="M12022 1520 c0 -14 2 -19 5 -12 2 6 2 18 0 25 -3 6 -5 1 -5 -13z"/>
<path d="M5098 1363 c7 -3 16 -2 19 1 4 3 -2 6 -13 5 -11 0 -14 -3 -6 -6z"/>
<path d="M6158 1363 c17 -2 47 -2 65 0 17 2 3 4 -33 4 -36 0 -50 -2 -32 -4z"/>
<path d="M6428 1363 c7 -3 16 -2 19 1 4 3 -2 6 -13 5 -11 0 -14 -3 -6 -6z"/>
<path d="M15828 1363 c83 -2 221 -2 305 0 83 1 15 3 -153 3 -168 0 -236 -2
-152 -3z"/>
</g>
</svg>
